<svg width="66" height="67" viewBox="0 0 66 67" fill="none" xmlns="http://www.w3.org/2000/svg">
<g id="ASHEFAMU Logo 2" clip-path="url(#clip0_513_21854)">
<g id="Layer 2">
<g id="Layer 1">
<path id="Vector" d="M32.5673 66.0664C50.5537 66.0664 65.1346 51.4855 65.1346 33.499C65.1346 15.5126 50.5537 0.931641 32.5673 0.931641C14.5809 0.931641 0 15.5126 0 33.499C0 51.4855 14.5809 66.0664 32.5673 66.0664Z" fill="white"/>
<path id="Vector_2" d="M51.6286 19.9762V37.6254H47.8406V33.6036L42.8368 32.1165L39.8718 31.2373V37.6254H37.9545V20.3222L27.292 24.4469V28.8055L19.4541 31.5927V37.4103H13.5056V20.8273L32.5765 12.4844L51.6286 19.9762Z" fill="#48A874"/>
<path id="Vector_3" d="M42.8376 22.3293V32.1126L39.8727 31.2334V37.6215H37.9553V20.3184L42.8376 22.3293Z" fill="#13613E"/>
<path id="Vector_4" d="M51.629 34.9016V37.6234H47.8411V33.6016L51.629 34.9016Z" fill="#13613E"/>
<path id="Vector_5" d="M25.3187 37.4072V33.2812L21.5308 34.5813L21.5308 37.4072H25.3187Z" fill="#13613E"/>
<path id="Vector_6" d="M35.8128 38.5664H29.462V43.6358H24.0466V49.7807H29.3872V54.5134H35.8128V49.6498H41.0879V43.907H35.8128V38.5664Z" fill="#48A874"/>
</g>
</g>
</g>
<defs>
<clipPath id="clip0_513_21854">
<rect width="65.1346" height="65.1348" fill="white" transform="translate(0 0.932617)"/>
</clipPath>
</defs>
</svg>
